<?xml version="1.0" encoding="utf-8"?>

<!-- License Agreement at http://iconmonstr.com/license/ -->

<!DOCTYPE svg PUBLIC "-//W3C//DTD SVG 1.1//EN" "http://www.w3.org/Graphics/SVG/1.1/DTD/svg11.dtd">
<svg version="1.1" xmlns="http://www.w3.org/2000/svg" xmlns:xlink="http://www.w3.org/1999/xlink" x="0px" y="0px"
	 width="512px" height="512px" viewBox="0 0 512 512" enable-background="new 0 0 512 512" xml:space="preserve">
<path id="headphones-6-icon" d="M360.352,217.828c-1.118,11.756-3.477,24.029-7.041,36.756h21.805
	c12.48,0,22.599-10.118,22.599-22.599v-55.852c0-12.48-10.118-22.599-22.599-22.599h-23.354
	C359.764,172.029,362.655,193.586,360.352,217.828z M255.699,83.008c38.612-0.078,75.164,18.846,90.684,53.092h19.381
	C351.89,85.777,310.562,50,255.699,50c-54.866,0-96.192,35.777-110.066,86.1h19.379C180.531,101.854,217.083,82.93,255.699,83.008z
	 M113.683,231.985c0,12.48,10.118,22.599,22.599,22.599h21.96c-3.476-12.318-5.794-24.238-6.934-35.709
	c-2.444-24.617,0.507-46.525,8.742-65.34h-23.769c-12.481,0-22.599,10.118-22.599,22.599V231.985z M384.725,376.004
	c-50.178-11.574-96.886-21.709-74.265-64.355c5.842-11.014,10.803-21.58,14.983-31.719c-12.633,7.229-26.745,12.818-34.415,14.725
	l-3.273-15.523c16.767-4.775,34.846-13.68,47.453-26.768c26.783-91.541-18.496-139.951-79.207-139.951
	c-74.144,0-123.502,72.086-54.459,199.236c23.299,42.908-25.166,53.031-74.266,64.355c-50.157,11.568-46.3,38.014-46.3,85.996
	h350.047C431.023,414.018,434.881,387.572,384.725,376.004z M256.108,306.428c-6.438,1.324-12.728-2.82-14.052-9.258
	c-1.325-6.438,2.82-12.729,9.258-14.053l25.578-5.67l4.796,23.311L256.108,306.428z"/>
</svg>
